<svg width="25" height="17" viewBox="0 0 25 17" fill="none" xmlns="http://www.w3.org/2000/svg">
<path d="M23.8167 11.0895V5.09031C23.8167 4.71184 23.6084 4.37629 23.3009 4.26027L12.1367 0.0420835C11.9883 -0.0140278 11.8284 -0.0140278 11.68 0.0420835L0.515747 4.26027C0.208473 4.37629 0 4.71162 0 5.09031C0 5.46879 0.208473 5.80411 0.515747 5.92014L6.10504 8.03202V11.3039C6.10504 11.3182 6.10542 11.3323 6.106 11.3464C6.12812 12.195 6.81229 12.9991 8.03814 13.615C9.15794 14.1777 10.5326 14.4875 11.9085 14.4875C13.2845 14.4875 14.6591 14.1777 15.7789 13.615C17.0252 12.9888 17.7116 12.1682 17.7116 11.3039V8.03202L22.3286 6.28765V11.0895C21.6343 11.4313 21.1452 12.2366 21.1452 13.1733V16.1279C21.1452 16.6095 21.4785 17 21.8893 17H24.2559C24.6668 17 25 16.6095 25 16.1279V13.1733C25 12.2366 24.5111 11.4313 23.8167 11.0895ZM14.9597 12.1223C14.0619 12.5227 12.9784 12.7434 11.9085 12.7434C10.8385 12.7434 9.75494 12.5227 8.85735 12.1223C8.07056 11.7711 7.68299 11.3913 7.59315 11.2319V8.59425L11.68 10.1383C11.7542 10.1663 11.8313 10.1803 11.9083 10.1803C11.9854 10.1803 12.0625 10.1665 12.1367 10.1383L16.2235 8.59425V11.2326C16.1329 11.3922 15.7455 11.7716 14.9597 12.1223ZM11.9083 8.39216L3.16906 5.09031L11.9083 1.78846L20.6476 5.09031L11.9083 8.39216ZM23.5119 15.2559H22.6334V13.1733C22.6334 12.8893 22.8306 12.6584 23.0726 12.6584C23.3149 12.6584 23.5119 12.8893 23.5119 13.1733V15.2559Z" fill="#64CF60"/>
</svg>
