<svg width="22" height="14" viewBox="0 0 22 14" fill="none" xmlns="http://www.w3.org/2000/svg">
<path d="M20.7924 2.07029C20.6637 1.99764 20.5044 1.9948 20.373 2.06304L15.7842 4.44886V3.01734C15.7828 1.9037 14.8351 1.00126 13.6655 1H3.11864C1.94909 1.00126 1.00132 1.9037 1 3.01734V10.9827C1.00132 12.0963 1.94909 12.9987 3.11864 13H13.6655C14.8351 12.9987 15.7828 12.0963 15.7842 10.9827V9.57715L20.3732 11.963C20.5044 12.0312 20.6638 12.0285 20.7924 11.9559C20.9212 11.8831 21 11.7511 21 11.6088V2.41718C21 2.2747 20.921 2.14295 20.7924 2.07029V2.07029ZM14.9364 10.9828C14.9357 11.6511 14.367 12.1924 13.6652 12.1932H3.11864C2.41684 12.1924 1.84829 11.6511 1.84746 10.9828V3.01734C1.84829 2.34925 2.41684 1.80772 3.11864 1.80693H13.6655C14.3672 1.80772 14.9359 2.34925 14.9367 3.01734L14.9364 10.9828ZM20.1525 10.9289L15.7842 8.65784V5.36816L20.1525 3.09724V10.9289Z" fill="#64CF60" stroke="#64CF60"/>
</svg>
