<svg width="20" height="20" viewBox="0 0 20 20" fill="none" xmlns="http://www.w3.org/2000/svg">
<path d="M18.8281 7.17109V1.75781C18.8281 0.788555 18.0396 0 17.0703 0H1.75781C0.788555 0 0 0.788555 0 1.75781V12.3438C0 13.313 0.788555 14.1016 1.75781 14.1016H6.67605L6.06816 15.3376C4.63035 15.5233 3.51562 16.7546 3.51562 18.2422C3.51562 18.5658 3.77797 18.8281 4.10156 18.8281H10.6867C10.9286 19.5101 11.5799 20 12.3438 20H18.2422C19.2114 20 20 19.2114 20 18.2422V8.82812C20 8.06426 19.5101 7.41297 18.8281 7.17109ZM1.17188 1.75781C1.17188 1.43473 1.43473 1.17188 1.75781 1.17188H17.0703C17.3934 1.17188 17.6562 1.43473 17.6562 1.75781V2.34375H1.17188V1.75781ZM10.5859 17.6562H4.78789C5.02973 16.9742 5.68137 16.4844 6.44531 16.4844H10.5859V17.6562ZM10.5859 15.3125H7.38645L7.98199 14.1016H10.5859V15.3125ZM10.5859 12.9297H7.61719H1.75781C1.43473 12.9297 1.17188 12.6668 1.17188 12.3438V11.7578H10.5859V12.9297ZM10.5859 8.82812V10.5859H1.17188V3.51562H17.6562V7.07031H12.3438C11.3745 7.07031 10.5859 7.85887 10.5859 8.82812ZM18.8281 18.2422C18.8281 18.5653 18.5653 18.8281 18.2422 18.8281H12.3438C12.0207 18.8281 11.7578 18.5653 11.7578 18.2422V17.6562H18.8281V18.2422ZM18.8281 16.4844H11.7578V15.8984V13.5156V10.5859H18.8281V16.4844ZM18.8281 9.41406H11.7578V8.82812C11.7578 8.50504 12.0207 8.24219 12.3438 8.24219H18.2414C18.2417 8.24219 18.242 8.24223 18.2422 8.24223C18.2423 8.24223 18.2424 8.24223 18.2426 8.24223C18.5655 8.24242 18.8281 8.50516 18.8281 8.82812V9.41406Z" fill="#64CF60"/>
</svg>
