<svg width="22" height="20" viewBox="0 0 22 20" fill="none" xmlns="http://www.w3.org/2000/svg">
<path d="M21.15 2.42269V2.27269H21.1433C21.0725 1.48375 20.45 0.85 19.6754 0.85H2.32457C2.32457 0.85 2.32457 0.85 2.32456 0.85C1.50144 0.84996 0.85 1.56566 0.85 2.42269V15.2874C0.85 16.1445 1.50146 16.8601 2.3246 16.8601H9.35094L8.92277 18.1446H8.00917C7.70758 18.1446 7.46303 18.3892 7.46303 18.6908C7.46303 18.9923 7.70758 19.2369 8.00917 19.2369H9.31642H12.6836H13.9908C14.2924 19.2369 14.537 18.9923 14.537 18.6908C14.537 18.3892 14.2924 18.1446 13.9908 18.1446H13.0772L12.6491 16.8601H19.6754C20.4985 16.8601 21.15 16.1445 21.15 15.2874V2.42269ZM20.0576 15.2874V15.2946C20.0545 15.58 19.8617 15.7678 19.6754 15.7678H11.8913H10.1087H2.32456C2.13667 15.7678 1.94223 15.5769 1.94223 15.2874V12.836H20.0576V15.2874ZM1.94227 2.42269C1.94227 2.13314 2.13668 1.94227 2.3246 1.94227H19.6754C19.8633 1.94227 20.0577 2.13315 20.0577 2.42269V11.7438H1.94227V2.42269ZM11.4976 16.8601L11.9258 18.1446H10.0741L10.5023 16.8601H11.4976Z" fill="#64CF60" stroke="#64CF60" stroke-width="0.3"/>
<path d="M11 15.396C11.6147 15.396 12.1147 14.8959 12.1147 14.2812C12.1147 13.6665 11.6147 13.1665 11 13.1665C10.3853 13.1665 9.88525 13.6665 9.88525 14.2812C9.88525 14.8959 10.3853 15.396 11 15.396ZM11 13.9588C11.1778 13.9588 11.3224 14.1034 11.3224 14.2812C11.3224 14.4591 11.1778 14.6037 11 14.6037C10.8222 14.6037 10.6775 14.4591 10.6775 14.2812C10.6775 14.1034 10.8222 13.9588 11 13.9588Z" fill="#64CF60"/>
</svg>
