<svg width="25" height="16" viewBox="0 0 25 16" fill="none" xmlns="http://www.w3.org/2000/svg">
<path d="M24.9227 10.3534L23.8942 4.60551C23.5636 1.97825 21.3753 0 18.795 0H6.20473C3.62443 0 1.43615 1.97825 1.10555 4.60556L0.0770737 10.3534C-0.434274 13.2113 1.66259 15.8801 4.4752 15.9961C7.15519 16.1063 9.30837 13.8583 9.31679 11.1759C9.31689 11.1664 9.0144 11.1697 15.683 11.1697C15.683 13.8429 17.8364 16.107 20.5246 15.9961C23.3245 15.8806 25.4365 13.2249 24.9227 10.3534V10.3534ZM22.1653 13.8961C20.958 14.7696 19.285 14.6954 18.1552 13.5803C17.5177 12.951 17.152 12.0691 17.152 11.1604C17.152 10.3495 16.5014 9.66033 15.6829 9.66033H9.31679C8.49845 9.66033 7.84768 10.3494 7.84768 11.1604C7.84768 13.0015 6.37608 14.5636 4.53406 14.4879C2.84997 14.4185 1.51935 13.0024 1.46641 11.3001C1.45314 10.874 1.43845 11.0931 2.55409 4.85794C2.55664 4.84375 2.55879 4.82946 2.56051 4.81507C2.78978 2.9305 4.35644 1.50938 6.20468 1.50938H18.7949C20.6432 1.50938 22.2098 2.9305 22.4391 4.81507C22.4431 4.84828 22.3704 4.43796 23.4777 10.6264C23.7123 11.9352 23.1405 13.1904 22.1653 13.8961Z" fill="#64CF60"/>
<path d="M8.97396 5.23327H7.7497V3.97542C7.7497 3.55861 7.42081 3.2207 7.01514 3.2207C6.60947 3.2207 6.28059 3.55861 6.28059 3.97542V5.23327H5.05633C4.65066 5.23327 4.32178 5.57118 4.32178 5.98798C4.32178 6.40479 4.65066 6.7427 5.05633 6.7427H6.28059V8.00055C6.28059 8.41736 6.60947 8.75527 7.01514 8.75527C7.42081 8.75527 7.7497 8.41736 7.7497 8.00055V6.7427H8.97396C9.37963 6.7427 9.70851 6.40479 9.70851 5.98798C9.70851 5.57118 9.37963 5.23327 8.97396 5.23327Z" fill="#64CF60"/>
<path d="M18.7051 3.8276C18.6142 3.38197 18.1842 3.12663 17.7712 3.25302C17.3474 3.3949 17.1734 3.82655 17.282 4.19389C17.4165 4.62574 17.838 4.80964 18.1978 4.69703C18.5779 4.57241 18.7731 4.20063 18.7051 3.8276Z" fill="#64CF60"/>
<path d="M19.9435 5.23242C19.5379 5.23242 19.209 5.57033 19.209 5.98713V6.03745C19.209 6.45425 19.5379 6.79216 19.9435 6.79216C20.3492 6.79216 20.6781 6.45425 20.6781 6.03745V5.98713C20.6781 5.57028 20.3492 5.23242 19.9435 5.23242Z" fill="#64CF60"/>
<path d="M16.0256 5.23242C15.6199 5.23242 15.291 5.57033 15.291 5.98713V6.03745C15.291 6.45425 15.6199 6.79216 16.0256 6.79216C16.4312 6.79216 16.7601 6.45425 16.7601 6.03745V5.98713C16.7601 5.57028 16.4312 5.23242 16.0256 5.23242Z" fill="#64CF60"/>
<path d="M18.7047 7.85324C18.6138 7.4076 18.1839 7.15226 17.7709 7.27865C17.3489 7.41993 17.1736 7.84645 17.2817 8.22003C17.422 8.66088 17.8444 8.83316 18.1974 8.72267C18.5761 8.59849 18.773 8.22752 18.7047 7.85324V7.85324Z" fill="#64CF60"/>
</svg>
