<svg width="20" height="18" viewBox="0 0 20 18" fill="none" xmlns="http://www.w3.org/2000/svg">
<path d="M16.2142 8.77069C18.264 6.91415 18.4319 3.73502 16.5891 1.66989C14.8991 -0.224181 12.0702 -0.545952 10.0035 0.920844C7.75062 -0.681053 4.63538 -0.139595 3.04541 2.13017C1.58647 4.21289 1.90455 7.0659 3.78573 8.77064C1.44832 10.012 -0.0105314 12.4594 5.72535e-05 15.1214V17.2803C5.72535e-05 17.6778 0.319852 18 0.714352 18H19.2856C19.6801 18 19.9999 17.6778 19.9999 17.2803V15.1214C20.0105 12.4594 18.5516 10.012 16.2142 8.77069ZM12.8571 1.44834C14.8267 1.44615 16.4252 3.05307 16.4275 5.0375C16.429 6.45276 15.6059 7.73711 14.3249 8.31799C14.2699 8.34316 14.2149 8.36619 14.1592 8.38997C13.9829 8.46161 13.8011 8.51862 13.6157 8.56053C13.58 8.56846 13.5442 8.57276 13.5078 8.57997C13.3005 8.61999 13.0902 8.64141 12.8792 8.64402C12.7842 8.64402 12.6885 8.63681 12.5935 8.62821C12.5578 8.62821 12.522 8.62821 12.4863 8.621C12.0804 8.57284 11.6855 8.45558 11.3185 8.27414C11.3049 8.26764 11.2892 8.26836 11.2756 8.26263C11.2042 8.22809 11.1328 8.19786 11.0692 8.15898C11.075 8.15177 11.0785 8.14389 11.0842 8.13668C11.4117 7.71265 11.67 7.2387 11.8492 6.73266L11.8713 6.6722C11.9528 6.4305 12.0161 6.18299 12.0606 5.93167C12.0671 5.89499 12.072 5.8597 12.0778 5.82014C12.1191 5.56432 12.1408 5.30572 12.1428 5.04652C12.1407 4.78783 12.119 4.52969 12.0778 4.27433C12.072 4.23693 12.0671 4.20235 12.0606 4.1628C12.0161 3.91153 11.9528 3.66397 11.8713 3.42227L11.8492 3.36181C11.67 2.85577 11.4117 2.38182 11.0842 1.9578C11.0785 1.95059 11.0749 1.9427 11.0692 1.93549C11.6119 1.61655 12.2288 1.44839 12.8571 1.44834ZM3.57145 5.04656C3.56638 3.06449 5.15707 1.45357 7.12438 1.44847C8.04656 1.44607 8.93375 1.8041 9.59928 2.44722C9.64072 2.48753 9.68144 2.5278 9.72141 2.56955C9.84408 2.69904 9.95721 2.83734 10.06 2.98332C10.0914 3.02794 10.12 3.07546 10.1493 3.1215C10.2491 3.27629 10.3367 3.43872 10.4114 3.60726C10.4293 3.64829 10.4428 3.69003 10.4585 3.73102C10.5338 3.91743 10.5931 4.11005 10.6357 4.30671C10.6407 4.3283 10.6421 4.34989 10.6464 4.3722C10.7369 4.81903 10.7369 5.2797 10.6464 5.72654C10.6421 5.74884 10.6407 5.77043 10.6357 5.79202C10.5931 5.98868 10.5338 6.1813 10.4585 6.36772C10.4428 6.40874 10.4292 6.45049 10.4114 6.49147C10.3366 6.65976 10.249 6.82193 10.1493 6.97651C10.12 7.02256 10.0914 7.07008 10.06 7.11469C9.95725 7.26071 9.84408 7.39898 9.72141 7.52847C9.6814 7.57021 9.64068 7.61052 9.59928 7.65079C9.31008 7.92846 8.97665 8.15519 8.61287 8.32149C8.55503 8.3481 8.49643 8.3726 8.43717 8.39347C8.26499 8.46233 8.08783 8.51765 7.90719 8.55897C7.8622 8.56905 7.81574 8.57478 7.77004 8.58271C7.5761 8.6191 7.37943 8.63904 7.18218 8.64246H7.10363C6.90638 8.63909 6.70971 8.6191 6.51577 8.58271C6.47006 8.57478 6.42361 8.56905 6.37862 8.55897C6.19798 8.51765 6.02078 8.46233 5.84864 8.39347C5.78933 8.36973 5.73078 8.34527 5.67294 8.32149C4.39502 7.74019 3.57308 6.45917 3.57145 5.04656ZM12.8571 16.5607H1.42861V15.1215C1.41814 12.6829 2.94316 10.5056 5.22713 9.6983C6.45324 10.2126 7.8324 10.2126 9.05855 9.6983C9.29703 9.78609 9.52943 9.8897 9.75426 10.0085C9.90284 10.0855 10.04 10.1733 10.1828 10.2618C10.2757 10.32 10.37 10.3769 10.4593 10.441C10.5971 10.5396 10.7271 10.6468 10.855 10.7569C10.9371 10.8289 11.0185 10.9008 11.0957 10.9728C11.2135 11.085 11.3242 11.2038 11.4307 11.3254C11.5071 11.4132 11.5814 11.5024 11.6521 11.5946C11.7457 11.7155 11.835 11.8393 11.9178 11.9666C11.9893 12.0745 12.0528 12.1868 12.1157 12.2991C12.1871 12.4228 12.2528 12.5466 12.3128 12.6755C12.3728 12.8043 12.4257 12.9453 12.4771 13.0828C12.522 13.2022 12.5699 13.321 12.607 13.4426C12.6571 13.6095 12.6921 13.7822 12.727 13.9549C12.7485 14.0571 12.7763 14.1572 12.792 14.2608C12.8343 14.5457 12.8561 14.8334 12.857 15.1215V16.5607H12.8571ZM18.5714 16.5607H14.2857V15.1215C14.2857 14.8962 14.2728 14.6731 14.2528 14.4522C14.2471 14.3874 14.2371 14.3234 14.23 14.2586C14.2107 14.0996 14.1885 13.942 14.1585 13.7858C14.1457 13.7192 14.1321 13.6522 14.1178 13.585C14.0835 13.4248 14.0438 13.266 13.9985 13.1086C13.9835 13.0568 13.9699 13.0043 13.9542 12.9532C13.7542 12.309 13.4644 11.6968 13.0935 11.1347L13.0657 11.0937C12.9428 10.9099 12.8116 10.7322 12.6721 10.5604L12.6671 10.5539C12.5243 10.3755 12.3692 10.202 12.2064 10.038C12.2157 10.038 12.2257 10.038 12.2357 10.038C12.4373 10.0646 12.6402 10.0791 12.8436 10.0811H12.8829C13.071 10.0795 13.2589 10.0672 13.4457 10.0444C13.5043 10.0372 13.5622 10.0264 13.6207 10.0171C13.7726 9.99359 13.9226 9.96311 14.0707 9.92571C14.1129 9.91491 14.1557 9.90483 14.1986 9.89261C14.3929 9.83935 14.5837 9.77395 14.77 9.69687C17.0556 10.5034 18.582 12.6816 18.5714 15.1215V16.5607H18.5714Z" fill="#64CF60"/>
</svg>
