<svg width="279" height="142" viewBox="0 0 279 142" fill="none" xmlns="http://www.w3.org/2000/svg">
<circle cx="3.5" cy="3.5" r="3.5" fill="white"/>
<circle cx="3.5" cy="37.5" r="3.5" fill="white"/>
<circle cx="3.5" cy="71.5" r="3.5" fill="white"/>
<circle cx="3.5" cy="105.5" r="3.5" fill="white"/>
<circle cx="3.5" cy="20.5" r="3.5" fill="white"/>
<circle cx="3.5" cy="54.5" r="3.5" fill="white"/>
<circle cx="3.5" cy="88.5" r="3.5" fill="white"/>
<circle cx="3.5" cy="122.5" r="3.5" fill="white"/>
<circle cx="275.5" cy="4.5" r="3.5" fill="white"/>
<circle cx="275.5" cy="38.5" r="3.5" fill="white"/>
<circle cx="275.5" cy="72.5" r="3.5" fill="white"/>
<circle cx="275.5" cy="106.5" r="3.5" fill="white"/>
<circle cx="275.5" cy="21.5" r="3.5" fill="white"/>
<circle cx="275.5" cy="55.5" r="3.5" fill="white"/>
<circle cx="275.5" cy="89.5" r="3.5" fill="white"/>
<circle cx="275.5" cy="123.5" r="3.5" fill="white"/>
<circle cx="139.5" cy="5.5" r="3.5" fill="white"/>
<circle cx="139.5" cy="39.5" r="3.5" fill="white"/>
<circle cx="139.5" cy="73.5" r="3.5" fill="white"/>
<circle cx="139.5" cy="107.5" r="3.5" fill="white"/>
<circle cx="139.5" cy="22.5" r="3.5" fill="white"/>
<circle cx="139.5" cy="56.5" r="3.5" fill="white"/>
<circle cx="139.5" cy="90.5" r="3.5" fill="white"/>
<circle cx="139.5" cy="124.5" r="3.5" fill="white"/>
<circle cx="71.5" cy="6.5" r="3.5" fill="white"/>
<circle cx="71.5" cy="40.5" r="3.5" fill="white"/>
<circle cx="71.5" cy="74.5" r="3.5" fill="white"/>
<circle cx="71.5" cy="108.5" r="3.5" fill="white"/>
<circle cx="71.5" cy="23.5" r="3.5" fill="white"/>
<circle cx="71.5" cy="57.5" r="3.5" fill="white"/>
<circle cx="71.5" cy="91.5" r="3.5" fill="white"/>
<circle cx="71.5" cy="125.5" r="3.5" fill="white"/>
<circle cx="207.5" cy="7.5" r="3.5" fill="white"/>
<circle cx="207.5" cy="41.5" r="3.5" fill="white"/>
<circle cx="207.5" cy="75.5" r="3.5" fill="white"/>
<circle cx="207.5" cy="109.5" r="3.5" fill="white"/>
<circle cx="207.5" cy="24.5" r="3.5" fill="white"/>
<circle cx="207.5" cy="58.5" r="3.5" fill="white"/>
<circle cx="207.5" cy="92.5" r="3.5" fill="white"/>
<circle cx="207.5" cy="126.5" r="3.5" fill="white"/>
<circle cx="20.5" cy="8.5" r="3.5" fill="white"/>
<circle cx="20.5" cy="42.5" r="3.5" fill="white"/>
<circle cx="20.5" cy="76.5" r="3.5" fill="white"/>
<circle cx="20.5" cy="110.5" r="3.5" fill="white"/>
<circle cx="20.5" cy="25.5" r="3.5" fill="white"/>
<circle cx="20.5" cy="59.5" r="3.5" fill="white"/>
<circle cx="20.5" cy="93.5" r="3.5" fill="white"/>
<circle cx="20.5" cy="127.5" r="3.5" fill="white"/>
<circle cx="156.5" cy="9.5" r="3.5" fill="white"/>
<circle cx="156.5" cy="43.5" r="3.5" fill="white"/>
<circle cx="156.5" cy="77.5" r="3.5" fill="white"/>
<circle cx="156.5" cy="111.5" r="3.5" fill="white"/>
<circle cx="156.5" cy="26.5" r="3.5" fill="white"/>
<circle cx="156.5" cy="60.5" r="3.5" fill="white"/>
<circle cx="156.5" cy="94.5" r="3.5" fill="white"/>
<circle cx="156.5" cy="128.5" r="3.5" fill="white"/>
<circle cx="88.5" cy="10.5" r="3.5" fill="white"/>
<circle cx="88.5" cy="44.5" r="3.5" fill="white"/>
<circle cx="88.5" cy="78.5" r="3.5" fill="white"/>
<circle cx="88.5" cy="112.5" r="3.5" fill="white"/>
<circle cx="88.5" cy="27.5" r="3.5" fill="white"/>
<circle cx="88.5" cy="61.5" r="3.5" fill="white"/>
<circle cx="88.5" cy="95.5" r="3.5" fill="white"/>
<circle cx="88.5" cy="129.5" r="3.5" fill="white"/>
<circle cx="224.5" cy="11.5" r="3.5" fill="white"/>
<circle cx="224.5" cy="45.5" r="3.5" fill="white"/>
<circle cx="224.5" cy="79.5" r="3.5" fill="white"/>
<circle cx="224.5" cy="113.5" r="3.5" fill="white"/>
<circle cx="224.5" cy="28.5" r="3.5" fill="white"/>
<circle cx="224.5" cy="62.5" r="3.5" fill="white"/>
<circle cx="224.5" cy="96.5" r="3.5" fill="white"/>
<circle cx="224.5" cy="130.5" r="3.5" fill="white"/>
<circle cx="37.5" cy="12.5" r="3.5" fill="white"/>
<circle cx="37.5" cy="46.5" r="3.5" fill="white"/>
<circle cx="37.5" cy="80.5" r="3.5" fill="white"/>
<circle cx="37.5" cy="114.5" r="3.5" fill="white"/>
<circle cx="37.5" cy="29.5" r="3.5" fill="white"/>
<circle cx="37.5" cy="63.5" r="3.5" fill="white"/>
<circle cx="37.5" cy="97.5" r="3.5" fill="white"/>
<circle cx="37.5" cy="131.5" r="3.5" fill="white"/>
<circle cx="173.5" cy="13.5" r="3.5" fill="white"/>
<circle cx="173.5" cy="47.5" r="3.5" fill="white"/>
<circle cx="173.5" cy="81.5" r="3.5" fill="white"/>
<circle cx="173.5" cy="115.5" r="3.5" fill="white"/>
<circle cx="173.5" cy="30.5" r="3.5" fill="white"/>
<circle cx="173.5" cy="64.5" r="3.5" fill="white"/>
<circle cx="173.5" cy="98.5" r="3.5" fill="white"/>
<circle cx="173.5" cy="132.5" r="3.5" fill="white"/>
<circle cx="105.5" cy="14.5" r="3.5" fill="white"/>
<circle cx="105.5" cy="48.5" r="3.5" fill="white"/>
<circle cx="105.5" cy="82.5" r="3.5" fill="white"/>
<circle cx="105.5" cy="116.5" r="3.5" fill="white"/>
<circle cx="105.5" cy="31.5" r="3.5" fill="white"/>
<circle cx="105.5" cy="65.5" r="3.5" fill="white"/>
<circle cx="105.5" cy="99.5" r="3.5" fill="white"/>
<circle cx="105.5" cy="133.5" r="3.5" fill="white"/>
<circle cx="241.5" cy="15.5" r="3.5" fill="white"/>
<circle cx="241.5" cy="49.5" r="3.5" fill="white"/>
<circle cx="241.5" cy="83.5" r="3.5" fill="white"/>
<circle cx="241.5" cy="117.5" r="3.5" fill="white"/>
<circle cx="241.5" cy="32.5" r="3.5" fill="white"/>
<circle cx="241.5" cy="66.5" r="3.5" fill="white"/>
<circle cx="241.5" cy="100.5" r="3.5" fill="white"/>
<circle cx="241.5" cy="134.5" r="3.5" fill="white"/>
<circle cx="54.5" cy="16.5" r="3.5" fill="white"/>
<circle cx="54.5" cy="50.5" r="3.5" fill="white"/>
<circle cx="54.5" cy="84.5" r="3.5" fill="white"/>
<circle cx="54.5" cy="118.5" r="3.5" fill="white"/>
<circle cx="54.5" cy="33.5" r="3.5" fill="white"/>
<circle cx="54.5" cy="67.5" r="3.5" fill="white"/>
<circle cx="54.5" cy="101.5" r="3.5" fill="white"/>
<circle cx="54.5" cy="135.5" r="3.5" fill="white"/>
<circle cx="190.5" cy="17.5" r="3.5" fill="white"/>
<circle cx="190.5" cy="51.5" r="3.5" fill="white"/>
<circle cx="190.5" cy="85.5" r="3.5" fill="white"/>
<circle cx="190.5" cy="119.5" r="3.5" fill="white"/>
<circle cx="190.5" cy="34.5" r="3.5" fill="white"/>
<circle cx="190.5" cy="68.5" r="3.5" fill="white"/>
<circle cx="190.5" cy="102.5" r="3.5" fill="white"/>
<circle cx="190.5" cy="136.5" r="3.5" fill="white"/>
<circle cx="122.5" cy="18.5" r="3.5" fill="white"/>
<circle cx="122.5" cy="52.5" r="3.5" fill="white"/>
<circle cx="122.5" cy="86.5" r="3.5" fill="white"/>
<circle cx="122.5" cy="120.5" r="3.5" fill="white"/>
<circle cx="122.5" cy="35.5" r="3.5" fill="white"/>
<circle cx="122.5" cy="69.5" r="3.5" fill="white"/>
<circle cx="122.5" cy="103.5" r="3.5" fill="white"/>
<circle cx="122.5" cy="137.5" r="3.5" fill="white"/>
<circle cx="258.5" cy="19.5" r="3.5" fill="white"/>
<circle cx="258.5" cy="53.5" r="3.5" fill="white"/>
<circle cx="258.5" cy="87.5" r="3.5" fill="white"/>
<circle cx="258.5" cy="121.5" r="3.5" fill="white"/>
<circle cx="258.5" cy="36.5" r="3.5" fill="white"/>
<circle cx="258.5" cy="70.5" r="3.5" fill="white"/>
<circle cx="258.5" cy="104.5" r="3.5" fill="white"/>
<circle cx="258.5" cy="138.5" r="3.5" fill="white"/>
</svg>
