<svg width="31" height="17" viewBox="0 0 31 17" fill="none" xmlns="http://www.w3.org/2000/svg">
<path d="M22.6576 4.23711C21.814 4.23711 21.1321 4.93748 21.1321 5.79886C21.1321 6.66023 21.814 7.3606 22.6576 7.3606C23.5013 7.3606 24.1832 6.66023 24.1832 5.79886C24.1832 4.93748 23.5013 4.23711 22.6576 4.23711ZM22.6576 6.50473C22.2789 6.50473 21.9699 6.18987 21.9699 5.79886C21.9699 5.40784 22.2789 5.09298 22.6576 5.09298C23.0364 5.09298 23.3454 5.40784 23.3454 5.79886C23.3454 6.18987 23.0363 6.50473 22.6576 6.50473Z" fill="white" stroke="#6EF269" stroke-width="0.1"/>
<path d="M22.6576 9.52825C21.814 9.52825 21.1321 10.2286 21.1321 11.09C21.1321 11.9514 21.814 12.6517 22.6576 12.6517C23.5013 12.6517 24.1832 11.9514 24.1832 11.09C24.1832 10.2286 23.5013 9.52825 22.6576 9.52825ZM22.6576 11.7959C22.2789 11.7959 21.9699 11.481 21.9699 11.09C21.9699 10.699 22.2789 10.3841 22.6576 10.3841C23.0364 10.3841 23.3454 10.699 23.3454 11.09C23.3454 11.481 23.0363 11.7959 22.6576 11.7959Z" fill="white" stroke="#6EF269" stroke-width="0.1"/>
<path d="M20.0755 6.88262C19.2319 6.88262 18.55 7.58299 18.55 8.44436C18.55 9.30574 19.2319 10.0061 20.0755 10.0061C20.9192 10.0061 21.601 9.30574 21.601 8.44436C21.601 7.58299 20.9192 6.88262 20.0755 6.88262ZM20.0755 9.15024C19.6968 9.15024 19.3878 8.83538 19.3878 8.44436C19.3878 8.05335 19.6968 7.73849 20.0755 7.73849C20.4542 7.73849 20.7633 8.05335 20.7633 8.44436C20.7633 8.83538 20.4542 9.15024 20.0755 9.15024Z" fill="white" stroke="#6EF269" stroke-width="0.1"/>
<path d="M25.2398 6.88262C24.3961 6.88262 23.7143 7.58299 23.7143 8.44436C23.7143 9.30574 24.3961 10.0061 25.2398 10.0061C26.0834 10.0061 26.7653 9.30574 26.7653 8.44436C26.7653 7.58299 26.0834 6.88262 25.2398 6.88262ZM25.2398 9.15024C24.8611 9.15024 24.552 8.83538 24.552 8.44436C24.552 8.05335 24.8611 7.73849 25.2398 7.73849C25.6185 7.73849 25.9275 8.05335 25.9275 8.44436C25.9275 8.83538 25.6185 9.15024 25.2398 9.15024Z" fill="white" stroke="#6EF269" stroke-width="0.1"/>
<path d="M10.616 6.76931H9.07992V5.19423C9.07992 4.94341 8.88112 4.73796 8.63339 4.73796H6.25419C6.00646 4.73796 5.80766 4.94341 5.80766 5.19423V6.76931H4.27153C4.0238 6.76931 3.825 6.97476 3.825 7.22558V9.6632C3.825 9.91403 4.0238 10.1195 4.27153 10.1195H5.80766V11.6945C5.80766 11.9454 6.00646 12.1508 6.25419 12.1508H8.63339C8.88112 12.1508 9.07992 11.9454 9.07992 11.6945V10.1195H10.616C10.8638 10.1195 11.0626 9.91403 11.0626 9.6632V7.22558C11.0626 6.9747 10.8638 6.76931 10.616 6.76931ZM10.1695 9.20693H8.63339C8.38565 9.20693 8.18685 9.41237 8.18685 9.6632V11.2383H6.70072V9.6632C6.70072 9.41237 6.50193 9.20693 6.25419 9.20693H4.71806V7.68185H6.25419C6.50193 7.68185 6.70072 7.47641 6.70072 7.22558V5.6505H8.18685V7.22558C8.18685 7.47641 8.38565 7.68185 8.63339 7.68185H10.1695V9.20693Z" fill="white" stroke="#6EF269" stroke-width="0.1"/>
<path d="M30.425 8.49915L30.425 8.49966C30.4256 10.5154 29.6639 12.4539 28.2984 13.9078C25.4004 16.9936 20.6195 17.1076 17.5845 14.1777H13.4074C11.9991 15.5453 10.1291 16.3068 8.18475 16.301M30.425 8.49915L8.13115 0.898935M30.425 8.49915C30.4128 4.25105 27.0888 0.784067 22.9331 0.702673C22.9085 0.700054 22.8841 0.69887 22.8601 0.698935M30.425 8.49915L22.8604 0.898935M8.18475 16.301C4.02448 16.2966 0.64341 12.8779 0.576023 8.62777C0.507873 4.32871 3.85259 0.778144 8.05898 0.702655C8.083 0.700073 8.1073 0.698805 8.13173 0.698935M8.18475 16.301C8.18469 16.301 8.18462 16.301 8.18455 16.301L8.18516 16.101L8.18495 16.301C8.18488 16.301 8.18482 16.301 8.18475 16.301ZM8.13173 0.698935C8.13196 0.698936 8.13219 0.698937 8.13243 0.698939L8.13115 0.898935M8.13173 0.698935H8.13115V0.898935M8.13173 0.698935H22.8601M8.13115 0.898935H22.8604M22.8601 0.698935C22.86 0.698935 22.8598 0.698935 22.8597 0.698936L22.8604 0.898935M22.8601 0.698935H22.8604V0.898935M18.3623 12.9844L18.3625 12.9846C19.5317 14.2111 21.1351 14.9001 22.8062 14.8955C26.2073 14.8813 28.9763 12.0726 29.0161 8.57642C29.0564 5.04129 26.2933 2.15023 22.8546 2.10852C22.8543 2.10851 22.8539 2.10851 22.8535 2.1085L22.8559 1.90852C22.8396 1.90852 22.8232 1.90751 22.8068 1.9055L18.3623 12.9844ZM18.3623 12.9844C18.2331 12.8492 18.0553 12.7721 17.8686 12.7717H17.8681M18.3623 12.9844L17.8681 12.7717M17.8681 12.7717L13.1234 12.7717L13.1229 12.7717M17.8681 12.7717H13.1229M13.1229 12.7717C12.9364 12.7721 12.7586 12.8492 12.6295 12.9841L13.1229 12.7717ZM8.19524 2.1055H22.7958H8.19524ZM3.73792 4.01896C4.89904 2.80824 6.48152 2.12148 8.13594 2.10852L12.6293 12.9844C10.216 15.5004 6.27103 15.5357 3.81531 13.0634C1.35686 10.5884 1.32206 6.53793 3.73792 4.01896L3.73792 4.01896Z" fill="#6EF269" stroke="#6EF269" stroke-width="0.4"/>
</svg>
