<svg width="37" height="25" viewBox="0 0 37 25" fill="none" xmlns="http://www.w3.org/2000/svg">
<path d="M29.1522 6.80654C26.9668 6.80654 25.1979 8.65649 25.1979 10.9161C25.1979 13.1758 26.9668 15.0257 29.1522 15.0257C31.3376 15.0257 33.1065 13.1758 33.1065 10.9161C33.1065 8.65649 31.3376 6.80654 29.1522 6.80654ZM29.1522 13.1419C27.9822 13.1419 27.0196 12.1489 27.0196 10.9161C27.0196 9.6834 27.9822 8.69036 29.1522 8.69036C30.3223 8.69036 31.2848 9.6834 31.2848 10.9161C31.2848 12.1489 30.3222 13.1419 29.1522 13.1419Z" fill="#6EF269" stroke="#6EF269" stroke-width="0.3"/>
<path d="M7.95592 6.80654C5.76895 6.80654 4.00161 8.65653 4.00161 10.9161C4.00161 13.1758 5.77055 15.0257 7.95592 15.0257C10.1413 15.0257 11.9102 13.1758 11.9102 10.9161C11.9102 8.65653 10.1428 6.80654 7.95592 6.80654ZM7.95592 13.1419C6.78587 13.1419 5.82332 12.1489 5.82332 10.9161C5.82332 9.6834 6.78587 8.69036 7.95592 8.69036C9.12598 8.69036 10.0885 9.6834 10.0885 10.9161C10.0885 12.1489 9.12591 13.1419 7.95592 13.1419Z" fill="#6EF269" stroke="#6EF269" stroke-width="0.3"/>
<path d="M25.5249 17.3623L25.5249 17.3623L25.5242 17.3627C25.0973 17.635 24.9624 18.2109 25.2196 18.6527L25.2196 18.6527L25.2201 18.6535C25.4819 19.0972 26.0411 19.2437 26.4747 18.9702L26.4748 18.9701C27.2802 18.461 28.205 18.1935 29.1521 18.1935C32.0005 18.1935 34.3281 20.6072 34.3281 23.587C34.3281 24.1012 34.7306 24.5289 35.239 24.5289C35.7475 24.5289 36.1499 24.1012 36.1499 23.587C36.1499 19.5803 33.0159 16.3096 29.1521 16.3096C27.8711 16.3096 26.6169 16.6742 25.5249 17.3623Z" fill="#6EF269" stroke="#6EF269" stroke-width="0.3"/>
<path d="M11.4739 17.3609L11.4734 17.3606C10.3829 16.6741 9.12881 16.3096 7.8478 16.3096C3.98394 16.3096 0.85 19.5803 0.85 23.587C0.85 24.1012 1.25245 24.5289 1.76089 24.5289C2.26933 24.5289 2.67178 24.1012 2.67178 23.587C2.67171 20.6072 4.99932 18.1935 7.8478 18.1935C8.79478 18.1935 9.71951 18.4609 10.5234 18.9684C10.9553 19.242 11.5181 19.0958 11.7785 18.6515C12.0377 18.2094 11.9025 17.6331 11.4739 17.3609Z" fill="#6EF269" stroke="#6EF269" stroke-width="0.3"/>
<path d="M18.4999 0.471088C15.4746 0.471088 13.0238 3.03058 13.0238 6.16459C13.0238 9.2986 15.4745 11.8581 18.4999 11.8581C21.5254 11.8581 23.976 9.29852 23.976 6.16459C23.976 3.03065 21.5254 0.471088 18.4999 0.471088ZM18.4999 9.97418C16.4914 9.97418 14.8456 8.26998 14.8456 6.16459C14.8456 4.0592 16.4914 2.35499 18.4999 2.35499C20.5084 2.35499 22.1542 4.0592 22.1542 6.16459C22.1542 8.26998 20.5085 9.97418 18.4999 9.97418Z" fill="white" stroke="white" stroke-width="0.3"/>
<path d="M18.4999 13.1419C12.9576 13.1419 8.45864 17.8333 8.45864 23.587C8.45864 24.1012 8.86109 24.5289 9.36953 24.5289C9.87797 24.5289 10.2804 24.1012 10.2804 23.587C10.2804 18.8603 13.973 15.0258 18.4999 15.0258C23.0269 15.0258 26.7194 18.8603 26.7194 23.587C26.7194 24.1012 27.1219 24.5289 27.6303 24.5289C28.1388 24.5289 28.5412 24.1012 28.5412 23.587C28.5412 17.8333 24.0423 13.1419 18.4999 13.1419Z" fill="white" stroke="white" stroke-width="0.3"/>
</svg>
