<svg width="39" height="39" viewBox="0 0 39 39" fill="none" xmlns="http://www.w3.org/2000/svg">
<path d="M19.4238 26.5078C18.5824 26.5078 17.9004 27.1899 17.9004 28.0312V34.5059C17.9004 35.3473 18.5824 36.0293 19.4238 36.0293C20.2652 36.0293 20.9473 35.3473 20.9473 34.5059V28.0312C20.9473 27.1899 20.2652 26.5078 19.4238 26.5078Z" fill="#64CF60"/>
<path d="M1.52344 9.14062C2.36483 9.14062 3.04688 8.45858 3.04688 7.61719V3.04688H7.61719C8.45858 3.04688 9.14062 2.36483 9.14062 1.52344C9.14062 0.682043 8.45858 0 7.61719 0H1.52344C0.682043 0 0 0.682043 0 1.52344V7.61719C0 8.45858 0.682043 9.14062 1.52344 9.14062Z" fill="#64CF60"/>
<path d="M7.69336 26.5078C6.85196 26.5078 6.16992 27.1899 6.16992 28.0312V30.6973C6.16992 31.5387 6.85196 32.2207 7.69336 32.2207C8.53475 32.2207 9.2168 31.5387 9.2168 30.6973V28.0312C9.2168 27.1899 8.53475 26.5078 7.69336 26.5078Z" fill="#64CF60"/>
<path d="M7.61719 35.9531H3.04688V31.3828C3.04688 30.5414 2.36483 29.8594 1.52344 29.8594C0.682043 29.8594 0 30.5414 0 31.3828V37.4766C0 38.318 0.682043 39 1.52344 39H7.61719C8.45858 39 9.14062 38.318 9.14062 37.4766C9.14062 36.6352 8.45858 35.9531 7.61719 35.9531Z" fill="#64CF60"/>
<path d="M13.5586 26.5078C12.7172 26.5078 12.0352 27.1899 12.0352 28.0312V30.6973C12.0352 31.5387 12.7172 32.2207 13.5586 32.2207C14.4 32.2207 15.082 31.5387 15.082 30.6973V28.0312C15.082 27.1899 14.4 26.5078 13.5586 26.5078Z" fill="#64CF60"/>
<path d="M37.4766 0H31.3828C30.5414 0 29.8594 0.682043 29.8594 1.52344C29.8594 2.36483 30.5414 3.04688 31.3828 3.04688H35.9531V7.61719C35.9531 8.45858 36.6352 9.14062 37.4766 9.14062C38.318 9.14062 39 8.45858 39 7.61719V1.52344C39 0.682043 38.318 0 37.4766 0Z" fill="#64CF60"/>
<path d="M25.5176 26.5078C24.6762 26.5078 23.9941 27.1899 23.9941 28.0312V30.6973C23.9941 31.5387 24.6762 32.2207 25.5176 32.2207C26.359 32.2207 27.041 31.5387 27.041 30.6973V28.0312C27.041 27.1899 26.359 26.5078 25.5176 26.5078Z" fill="#64CF60"/>
<path d="M37.4766 21.1758H33.0586V7.61719C33.0586 6.77579 32.3766 6.09375 31.5352 6.09375C30.6938 6.09375 30.0117 6.77579 30.0117 7.61719V21.1758H27.041V7.61719C27.041 6.77579 26.359 6.09375 25.5176 6.09375C24.6762 6.09375 23.9941 6.77579 23.9941 7.61719V21.1758H20.9473V7.61719C20.9473 6.77579 20.2652 6.09375 19.4238 6.09375C18.5824 6.09375 17.9004 6.77579 17.9004 7.61719V21.1758H15.082V7.61719C15.082 6.77579 14.4 6.09375 13.5586 6.09375C12.7172 6.09375 12.0352 6.77579 12.0352 7.61719V21.1758H9.2168V7.61719C9.2168 6.77579 8.53475 6.09375 7.69336 6.09375C6.85196 6.09375 6.16992 6.77579 6.16992 7.61719V21.1758H1.52344C0.682043 21.1758 0 21.8578 0 22.6992C0 23.5406 0.682043 24.2227 1.52344 24.2227H37.4766C38.318 24.2227 39 23.5406 39 22.6992C39 21.8578 38.318 21.1758 37.4766 21.1758Z" fill="#64CF60"/>
<path d="M31.5352 32.2207C32.3766 32.2207 33.0586 31.5387 33.0586 30.6973V28.0312C33.0586 27.1899 32.3766 26.5078 31.5352 26.5078C30.6938 26.5078 30.0117 27.1899 30.0117 28.0312V30.6973C30.0117 31.5387 30.6938 32.2207 31.5352 32.2207Z" fill="#64CF60"/>
<path d="M37.4766 29.8594C36.6352 29.8594 35.9531 30.5414 35.9531 31.3828V35.9531H31.3828C30.5414 35.9531 29.8594 36.6352 29.8594 37.4766C29.8594 38.318 30.5414 39 31.3828 39H37.4766C38.318 39 39 38.318 39 37.4766V31.3828C39 30.5414 38.318 29.8594 37.4766 29.8594Z" fill="#64CF60"/>
</svg>
