<svg width="29" height="25" viewBox="0 0 29 25" fill="none" xmlns="http://www.w3.org/2000/svg">
<path d="M27.3724 13.7097C26.7677 13.7097 26.2775 14.1868 26.2775 14.7754V21.1694C26.2775 21.7579 25.7873 22.2351 25.1826 22.2351H3.28476C2.68004 22.2351 2.18984 21.7579 2.18984 21.1694V14.7754C2.18984 14.1868 1.69964 13.7097 1.09492 13.7097C0.490202 13.7097 0 14.1868 0 14.7754V21.1694C0 22.935 1.4706 24.3664 3.28469 24.3664H25.1827C26.9968 24.3664 28.4674 22.935 28.4674 21.1694V14.7754C28.4674 14.1868 27.9772 13.7097 27.3724 13.7097Z" fill="#6EF269"/>
<path d="M20.7238 12.7834C20.2995 12.3846 19.6269 12.3846 19.2026 12.7834L15.5949 16.2926V1.20968C15.5949 0.621111 15.1047 0.143996 14.5 0.143996C13.8953 0.143996 13.4051 0.621111 13.4051 1.20968C13.4051 1.79826 13.4051 16.2927 13.4051 16.2927L9.79953 12.7834C9.36456 12.3746 8.67144 12.3863 8.25136 12.8096C7.84154 13.2226 7.84154 13.8773 8.25136 14.2903L13.7258 19.6186C14.1529 20.0353 14.8462 20.0361 15.2743 19.6205L15.2762 19.6186L20.7507 14.2903C21.1709 13.8669 21.1588 13.1923 20.7238 12.7834Z" fill="white"/>
</svg>
