<svg width="35" height="41" viewBox="0 0 35 41" fill="none" xmlns="http://www.w3.org/2000/svg">
<path d="M17.5 0.85C7.96689 0.85 0.211328 8.60557 0.211328 18.1387V18.1449V18.1513V18.1578V18.1645V18.1714V18.1784V18.1855V18.1929V18.2004V18.208V18.2158V18.2237V18.2318V18.2401V18.2485V18.2571V18.2658V18.2746V18.2836V18.2928V18.3021V18.3116V18.3212V18.3309V18.3408V18.3508V18.361V18.3713V18.3818V18.3924V18.4032V18.414V18.4251V18.4362V18.4475V18.459V18.4706V18.4823V18.4941V18.5061V18.5183V18.5305V18.5429V18.5554V18.5681V18.5809V18.5938V18.6069V18.62V18.6333V18.6468V18.6603V18.674V18.6878V18.7018V18.7158V18.73V18.7443V18.7588V18.7733V18.788V18.8028V18.8177V18.8328V18.8479V18.8632V18.8786V18.8941V18.9097V18.9254V18.9413V18.9573V18.9733V18.9895V19.0058V19.0222V19.0388V19.0554V19.0721V19.089V19.106V19.123V19.1402V19.1575V19.1749V19.1923V19.2099V19.2276V19.2454V19.2633V19.2813V19.2994V19.3176V19.3359V19.3543V19.3728V19.3914V19.4101V19.4289V19.4478V19.4667V19.4858V19.505V19.5242V19.5436V19.563V19.5825V19.6021V19.6219V19.6416V19.6615V19.6815V19.7015V19.7217V19.7419V19.7622V19.7826V19.8031V19.8236V19.8443V19.865V19.8858V19.9067V19.9276V19.9487V19.9698V19.991V20.0123V20.0336V20.055V20.0765V20.0981V20.1197V20.1414V20.1632V20.1851V20.207V20.229V20.251V20.2732V20.2954V20.3176V20.34V20.3624V20.3848V20.4073V20.4299V20.4526V20.4753V20.4981V20.5209V20.5438V20.5668V20.5898V20.6129V20.636V20.6592V20.6824V20.7057V20.7291V20.7525V20.7759V20.7994V20.823V20.8466V20.8703V20.894V20.9178V20.9416V20.9655V20.9894V21.0133V21.0373V21.0614V21.0855V21.1096V21.1338V21.158V21.1823V21.2066V21.2309V21.2553V21.2798V21.3042V21.3287V21.3533V21.3778V21.4025V21.4271V21.4518V21.4765V21.5013V21.526V21.5509V21.5757V21.6006V21.6255V21.6504V21.6754V21.7004V21.7254V21.7505V21.7755V21.8006V21.8257V21.8509V21.8761V21.9013V21.9265V21.9517V21.977V22.0022V22.0275V22.0528V22.0782V22.1035V22.1289V22.1543V22.1797V22.2051V22.2305V22.2559V22.2814V22.3068V22.3323V22.3578V22.3833V22.4088V22.4343V22.4598V22.4854V22.5109V22.5364V22.562V22.5875V22.6131V22.6386V22.6642V22.6897V22.7153V22.7409V22.7664V22.792V22.8175V22.8431V22.8686V22.8942V22.9197V22.9453V22.9708V22.9963V23.0218V23.0474V23.0729V23.0984V23.1238V23.1493V23.1748V23.2002V23.2257V23.2511V23.2765V23.3019V23.3273V23.3527V23.378V23.4034V23.4287V23.454V23.4792V23.5045V23.5297V23.555V23.5802V23.6053V23.6305V23.6556V23.6807V23.7058V23.7308V23.7559V23.7809V23.8058V23.8308V23.8557V23.8806V23.9054V23.9303V23.955V23.9798V24.0045V24.0292V24.0539V24.0785V24.1031V24.1276V24.1521V24.1766V24.201V24.2254V24.2498V24.2741V24.2984V24.3226V24.3468V24.371V24.3951V24.4191V24.4431V24.4671V24.491V24.5149V24.5387V24.5625V24.5862V24.6099V24.6335V24.6571V24.6806V24.7041V24.7275V24.7509V24.7742V24.7974V24.8206V24.8438V24.8669V24.8899V24.9129V24.9358V24.9586V24.9814V25.0041V25.0268V25.0494V25.0719V25.0944V25.1168V25.1392V25.1614V25.1836V25.2058V25.2279V25.2499V25.2718V25.2937V25.3155V25.3372V25.3588V25.3804V25.4019V25.4234V25.4447V25.466V25.4872V25.5083V25.5294V25.5504V25.5713V25.5921V25.6128V25.6335V25.654V25.6745V25.695V25.7153V25.7355V25.7557V25.7757V25.7957V25.8156V25.8354V25.8552V25.8748V25.8943V25.9138V25.9332V25.9524V25.9716V25.9907V26.0097V26.0286V26.0474V26.0661V26.0847V26.1032V26.1216V26.14V26.1582V26.1763V26.1943V26.2122V26.23V26.2478V26.2654V26.2829V26.3003V26.3176V26.3348V26.3519V26.3689V26.3857V26.4025V26.4191V26.4357V26.4521V26.4685V26.4847V26.5008V26.5168V26.5326V26.5484V26.564V26.5796V26.595V26.6103V26.6254V26.6405V26.6554V26.6703V26.685V26.6995V26.714V26.7283V26.7425V26.7566V26.7706V26.7844V26.7982V26.8117V26.8252V26.8385V26.8517V26.8648V26.8778V26.8906V26.9032V26.9158V26.9282V26.9405V26.9527V26.9647V26.9766V26.9883V26.9999V27.0114V27.0227V27.0339V27.045V27.0559V27.0667V27.0773V27.0878V27.0981V27.1083V27.1184V27.1283V27.1381V27.1477V27.1572V27.1665V27.1757V27.1848V27.1937V27.2024V27.211V27.2194V27.2277V27.2358V27.2438V27.2516V27.2593V27.2668V27.2742V27.2814V27.2884V27.2953V27.3021V27.3086V27.315V27.3213V27.3274V27.3333V27.3391V27.3447V27.3501V27.3554V27.3605V27.3654V27.3702V27.3748V27.3792V27.3835V27.3876V27.3915V27.3953V27.3989V27.4023V27.4055V27.4086V27.4115V27.4142V27.4167V27.4191V27.4213V27.4233V27.4252V27.4268V27.4283V27.4296V27.4307V27.4316C0.211328 29.4045 1.81617 31.0094 3.78906 31.0094H5.02391C5.54309 32.3447 6.8417 33.2945 8.35938 33.2945C10.3323 33.2945 11.9371 31.6897 11.9371 29.7168V20.4238C11.9371 18.4509 10.3323 16.8461 8.35938 16.8461C6.8417 16.8461 5.54309 17.7959 5.02391 19.1313H3.78906C3.44471 19.1313 3.11177 19.1806 2.79648 19.272V18.1387C2.79648 10.0313 9.39261 3.43516 17.5 3.43516C25.6074 3.43516 32.2035 10.0313 32.2035 18.1387V19.272C31.8882 19.1806 31.5553 19.1313 31.2109 19.1313H29.9761C29.4569 17.7959 28.1583 16.8461 26.6406 16.8461C24.6677 16.8461 23.0629 18.4509 23.0629 20.4238V29.7168C23.0629 31.6897 24.6677 33.2945 26.6406 33.2945C26.9014 33.2945 27.1558 33.2662 27.4009 33.2128C26.9182 34.4227 25.7348 35.2797 24.3555 35.2797H20.8355C20.3163 33.9444 19.0177 32.9945 17.5 32.9945C15.5271 32.9945 13.9223 34.5994 13.9223 36.5723C13.9223 38.5452 15.5271 40.15 17.5 40.15C19.0177 40.15 20.3163 39.2002 20.8355 37.8648H24.3555C27.5884 37.8648 30.2184 35.2349 30.2184 32.002V31.0094H31.2109C33.1838 31.0094 34.7887 29.4045 34.7887 27.4316V27.4307V27.4296V27.4283V27.4269V27.4252V27.4234V27.4214V27.4192V27.4169V27.4143V27.4116V27.4087V27.4057V27.4024V27.399V27.3955V27.3917V27.3878V27.3837V27.3794V27.375V27.3704V27.3657V27.3607V27.3556V27.3504V27.345V27.3394V27.3336V27.3277V27.3216V27.3154V27.309V27.3024V27.2957V27.2888V27.2818V27.2746V27.2672V27.2597V27.2521V27.2442V27.2363V27.2282V27.2199V27.2114V27.2029V27.1941V27.1853V27.1762V27.167V27.1577V27.1482V27.1386V27.1289V27.1189V27.1089V27.0987V27.0883V27.0779V27.0672V27.0565V27.0455V27.0345V27.0233V27.012V27.0005V26.9889V26.9772V26.9653V26.9533V26.9411V26.9288V26.9164V26.9039V26.8912V26.8784V26.8655V26.8524V26.8392V26.8259V26.8124V26.7988V26.7851V26.7713V26.7573V26.7432V26.729V26.7147V26.7002V26.6857V26.671V26.6562V26.6412V26.6262V26.611V26.5957V26.5803V26.5648V26.5491V26.5334V26.5175V26.5015V26.4854V26.4692V26.4529V26.4364V26.4199V26.4032V26.3865V26.3696V26.3526V26.3355V26.3184V26.3011V26.2837V26.2661V26.2485V26.2308V26.213V26.1951V26.1771V26.1589V26.1407V26.1224V26.104V26.0855V26.0669V26.0482V26.0294V26.0105V25.9915V25.9724V25.9532V25.9339V25.9146V25.8951V25.8756V25.8559V25.8362V25.8164V25.7965V25.7765V25.7565V25.7363V25.7161V25.6957V25.6753V25.6548V25.6343V25.6136V25.5929V25.5721V25.5512V25.5302V25.5091V25.488V25.4668V25.4455V25.4241V25.4027V25.3812V25.3596V25.338V25.3162V25.2944V25.2726V25.2506V25.2286V25.2065V25.1844V25.1622V25.1399V25.1176V25.0952V25.0727V25.0501V25.0275V25.0049V24.9821V24.9594V24.9365V24.9136V24.8906V24.8676V24.8445V24.8214V24.7982V24.7749V24.7516V24.7282V24.7048V24.6813V24.6578V24.6342V24.6106V24.5869V24.5632V24.5394V24.5156V24.4917V24.4678V24.4438V24.4198V24.3957V24.3716V24.3475V24.3233V24.2991V24.2748V24.2505V24.2261V24.2017V24.1773V24.1528V24.1283V24.1037V24.0791V24.0545V24.0298V24.0052V23.9804V23.9557V23.9309V23.906V23.8812V23.8563V23.8314V23.8064V23.7815V23.7565V23.7314V23.7064V23.6813V23.6562V23.6311V23.6059V23.5807V23.5555V23.5303V23.5051V23.4798V23.4545V23.4292V23.4039V23.3785V23.3532V23.3278V23.3024V23.277V23.2516V23.2262V23.2007V23.1753V23.1498V23.1243V23.0988V23.0733V23.0478V23.0223V22.9968V22.9713V22.9457V22.9202V22.8946V22.8691V22.8435V22.818V22.7924V22.7668V22.7413V22.7157V22.6901V22.6646V22.639V22.6135V22.5879V22.5624V22.5368V22.5113V22.4857V22.4602V22.4347V22.4092V22.3837V22.3582V22.3327V22.3072V22.2817V22.2563V22.2308V22.2054V22.18V22.1546V22.1292V22.1038V22.0785V22.0531V22.0278V22.0025V21.9772V21.952V21.9267V21.9015V21.8763V21.8512V21.826V21.8009V21.7758V21.7507V21.7256V21.7006V21.6756V21.6506V21.6257V21.6008V21.5759V21.5511V21.5262V21.5015V21.4767V21.452V21.4273V21.4026V21.378V21.3534V21.3289V21.3044V21.2799V21.2555V21.2311V21.2067V21.1824V21.1582V21.1339V21.1097V21.0856V21.0615V21.0374V21.0134V20.9895V20.9656V20.9417V20.9179V20.8941V20.8704V20.8467V20.8231V20.7995V20.776V20.7525V20.7291V20.7058V20.6825V20.6592V20.636V20.6129V20.5898V20.5668V20.5438V20.5209V20.4981V20.4753V20.4526V20.4299V20.4074V20.3848V20.3624V20.34V20.3176V20.2954V20.2732V20.251V20.229V20.207V20.185V20.1632V20.1414V20.1197V20.098V20.0765V20.055V20.0335V20.0122V19.9909V19.9697V19.9486V19.9276V19.9066V19.8857V19.8649V19.8442V19.8236V19.803V19.7825V19.7621V19.7418V19.7216V19.7015V19.6814V19.6614V19.6415V19.6217V19.602V19.5824V19.5629V19.5435V19.5241V19.5049V19.4857V19.4666V19.4476V19.4288V19.41V19.3913V19.3727V19.3542V19.3358V19.3175V19.2993V19.2812V19.2632V19.2453V19.2275V19.2098V19.1922V19.1747V19.1573V19.14V19.1229V19.1058V19.0888V19.072V19.0552V19.0386V19.0221V19.0057V18.9894V18.9732V18.9571V18.9411V18.9253V18.9095V18.8939V18.8784V18.863V18.8478V18.8326V18.8176V18.8026V18.7879V18.7732V18.7586V18.7442V18.7299V18.7157V18.7016V18.6877V18.6739V18.6602V18.6466V18.6332V18.6199V18.6067V18.5937V18.5807V18.568V18.5553V18.5428V18.5304V18.5181V18.506V18.494V18.4822V18.4704V18.4589V18.4474V18.4361V18.425V18.4139V18.403V18.3923V18.3817V18.3712V18.3609V18.3507V18.3407V18.3308V18.3211V18.3115V18.302V18.2927V18.2836V18.2746V18.2657V18.257V18.2484V18.24V18.2318V18.2237V18.2157V18.208V18.2003V18.1928V18.1855V18.1783V18.1713V18.1645V18.1578V18.1513V18.1449V18.1387C34.7887 8.60557 27.0331 0.85 17.5 0.85ZM7.3668 20.4238C7.3668 19.8767 7.8122 19.4312 8.35938 19.4312C8.90655 19.4312 9.35195 19.8767 9.35195 20.4238V29.7168C9.35195 30.264 8.90655 30.7094 8.35938 30.7094C7.8122 30.7094 7.3668 30.264 7.3668 29.7168V20.4238ZM3.78906 21.7164H4.78164V28.4242H3.78906C3.24189 28.4242 2.79648 27.9788 2.79648 27.4316V22.709C2.79648 22.1618 3.24189 21.7164 3.78906 21.7164ZM17.5 37.5648C16.9528 37.5648 16.5074 37.1194 16.5074 36.5723C16.5074 36.0251 16.9528 35.5797 17.5 35.5797C18.0472 35.5797 18.4926 36.0251 18.4926 36.5723C18.4926 37.1194 18.0472 37.5648 17.5 37.5648ZM27.6332 29.7168C27.6332 30.264 27.1878 30.7094 26.6406 30.7094C26.0935 30.7094 25.648 30.264 25.648 29.7168V20.4238C25.648 19.8767 26.0935 19.4312 26.6406 19.4312C27.1878 19.4312 27.6332 19.8767 27.6332 20.4238V29.7168ZM32.2035 27.4316C32.2035 27.9788 31.7581 28.4242 31.2109 28.4242H30.2184V21.7164H31.2109C31.7581 21.7164 32.2035 22.1618 32.2035 22.709V27.4316Z" fill="#64CF60" stroke="#64CF60" stroke-width="0.3"/>
</svg>
