<svg width="28" height="24" viewBox="0 0 28 24" fill="none" xmlns="http://www.w3.org/2000/svg">
<path d="M24.6641 15.6062H16.4875V5.90625C16.4875 4.53461 15.3717 3.41875 14 3.41875C12.6283 3.41875 11.5125 4.53461 11.5125 5.90625V15.6062H3.33594C2.02031 15.6062 0.95 16.6766 0.95 17.9922V18.9062C0.95 21.622 3.15928 23.8312 5.875 23.8312H22.125C24.8407 23.8312 27.05 21.622 27.05 18.9062V17.9922C27.05 16.6766 25.9797 15.6062 24.6641 15.6062ZM13.2375 5.90625C13.2375 5.48587 13.5796 5.14375 14 5.14375C14.4204 5.14375 14.7625 5.48587 14.7625 5.90625V15.6062H13.2375V5.90625ZM25.325 18.9062C25.325 20.6707 23.8895 22.1063 22.125 22.1063H5.875C4.11054 22.1063 2.675 20.6707 2.675 18.9062V17.9922C2.675 17.6278 2.97152 17.3313 3.33594 17.3313H12.375H15.625H24.6641C25.0285 17.3313 25.325 17.6278 25.325 17.9922V18.9062Z" fill="#6EF269" stroke="#6EF269" stroke-width="0.1"/>
<path d="M7.74406 0.421253C7.40715 0.0844468 6.86102 0.0846054 6.52432 0.421522C5.28752 1.65899 4.60625 3.30401 4.60625 5.05312C4.60625 6.80224 5.28752 8.44726 6.52437 9.68472C6.69276 9.85323 6.9136 9.93749 7.13437 9.93749L7.70871 9.64963L7.74405 9.685C7.74406 9.685 7.74406 9.685 7.74406 9.68499C8.08097 9.34829 8.08113 8.80217 7.74438 8.46526C6.83303 7.55346 6.33125 6.34179 6.33125 5.05312C6.33125 3.76446 6.83303 2.55278 7.74438 1.64099C8.08113 1.30407 8.08097 0.758003 7.74406 0.421253ZM7.74406 0.421253L7.70871 0.456614L7.74406 0.42125C7.74406 0.421251 7.74406 0.421252 7.74406 0.421253Z" fill="white" stroke="#6EF269" stroke-width="0.1"/>
<path d="M9.75494 7.67417C10.0919 7.33748 10.0922 6.79141 9.75548 6.45444C9.38108 6.07969 9.175 5.5822 9.175 5.05312C9.175 4.5241 9.38108 4.02656 9.75553 3.65176C10.0922 3.31479 10.0919 2.76872 9.75494 2.43202L9.75494 2.43202C9.41792 2.09538 8.87185 2.09559 8.53515 2.43256L8.53515 2.43256C7.83547 3.13291 7.45 4.06374 7.45 5.05312C7.45 6.04256 7.83547 6.97334 8.5352 7.67369C8.7036 7.84224 8.92449 7.92656 9.14532 7.92656C9.36588 7.92656 9.5866 7.84241 9.75494 7.67417ZM9.75494 7.67417L9.7196 7.6388M9.75494 7.67417C9.75495 7.67417 9.75495 7.67417 9.75495 7.67417L9.7196 7.6388M9.7196 7.6388C9.56101 7.79729 9.35316 7.87656 9.14532 7.87656C8.93721 7.87656 8.72921 7.79714 8.57057 7.63835C7.8802 6.94737 7.5 6.02929 7.5 5.05312C7.5 4.07701 7.8802 3.15888 8.57052 2.4679C8.8877 2.15047 9.40212 2.15026 9.7196 2.46739C10.037 2.78457 10.0373 3.29899 9.72016 3.61642C9.33636 4.00058 9.125 4.51083 9.125 5.05312C9.125 5.59547 9.33636 6.10567 9.72011 6.48978C10.0373 6.80721 10.037 7.32162 9.7196 7.6388Z" fill="white" stroke="#6EF269" stroke-width="0.1"/>
<path d="M20.256 0.421248C19.9191 0.757948 19.9189 1.30407 20.2556 1.64099C21.167 2.55278 21.6688 3.76441 21.6688 5.05312C21.6688 6.34184 21.167 7.55346 20.2556 8.46526C19.9188 8.80218 19.919 9.34825 20.2559 9.68499C20.4243 9.85334 20.645 9.93749 20.8656 9.93749C21.0864 9.93749 21.3073 9.85323 21.4757 9.68473C22.7125 8.44726 23.3938 6.80224 23.3938 5.05312C23.3938 3.30401 22.7125 1.65899 21.4757 0.421522L21.4757 0.421521C21.139 0.0846141 20.5928 0.0844427 20.256 0.421248ZM20.256 0.421248L20.2913 0.456599L20.256 0.421256C20.256 0.421253 20.256 0.42125 20.256 0.421248Z" fill="white" stroke="#6EF269" stroke-width="0.1"/>
<path d="M18.2445 3.65176L18.2445 3.65176C17.9078 3.31479 17.9081 2.76867 18.2451 2.43202C18.582 2.09538 19.1281 2.0956 19.4649 2.43256L19.4649 2.43256C20.1645 3.13296 20.55 4.06379 20.55 5.05312C20.55 6.0425 20.1645 6.97333 19.4648 7.67363C19.4648 7.67363 19.4648 7.67364 19.4648 7.67364L19.4294 7.6383L18.2445 3.65176ZM18.2445 3.65176C18.6189 4.02651 18.825 4.52405 18.825 5.05312C18.825 5.58225 18.6189 6.07969 18.2445 6.45444C17.9078 6.79141 17.9081 7.33748 18.2451 7.67417M18.2445 3.65176L18.2451 7.67417M18.2451 7.67417C18.2451 7.67417 18.2451 7.67417 18.2451 7.67417L18.2804 7.63885L18.2451 7.67417Z" fill="white" stroke="#6EF269" stroke-width="0.1"/>
<path d="M5.82573 19.7187C5.82573 20.1951 6.21219 20.5812 6.68849 20.5812C7.1648 20.5812 7.55099 20.1951 7.55099 19.7187C7.55099 19.2424 7.16486 18.8562 6.68849 18.8562H6.68798C6.21164 18.8562 5.82573 19.2424 5.82573 19.7187Z" fill="white" stroke="#6EF269" stroke-width="0.1"/>
<path d="M9.07573 19.7187C9.07573 20.1951 9.46219 20.5812 9.93849 20.5812C10.4148 20.5812 10.801 20.1951 10.801 19.7187C10.801 19.2424 10.4149 18.8562 9.93849 18.8562H9.93798C9.46164 18.8562 9.07573 19.2424 9.07573 19.7187Z" fill="white" stroke="#6EF269" stroke-width="0.1"/>
</svg>
