<svg width="524" height="259" viewBox="0 0 524 259" fill="none" xmlns="http://www.w3.org/2000/svg">
<path d="M317.774 0.5H-162.184C-168.772 0.5 -174.456 5.27142 -175.593 11.8662L-180.305 39.1958C-180.305 39.1963 -180.305 39.1967 -180.305 39.1972C-180.986 43.2881 -179.854 47.1532 -177.342 50.3503C-174.848 53.5237 -170.99 55.3429 -166.896 55.3429H347.226C394.011 55.3429 437.964 73.5386 471.045 106.62L480.705 116.28C483.211 118.786 486.62 120.375 490.483 120.375C494.352 120.375 497.525 119.017 500.261 116.28L519.582 96.9592C524.806 91.7351 524.806 82.8623 519.582 77.6382L509.923 67.9786L317.774 0.5ZM317.774 0.5H346.991C408.354 0.5 466.189 24.4803 509.922 67.9777L317.774 0.5Z" fill="#6EF269" stroke="#6EF269"/>
<path d="M350.32 157.161C366.107 157.161 381.391 162.345 393.172 172.948L405.895 184.258C411.786 189.442 420.739 188.97 425.923 183.08L444.066 162.816C446.658 159.989 447.836 156.454 447.6 152.449C447.364 148.679 445.715 145.144 442.888 142.788L432.756 133.834C409.194 112.864 378.799 101.318 346.99 101.318H88.2798C81.4469 101.318 75.5564 106.266 74.3783 113.099L69.6659 140.432C68.959 144.673 70.1371 148.679 72.7289 151.977C75.3207 155.276 79.3263 157.161 83.5674 157.161H347.226C348.754 157.161 349.378 157.161 350.32 157.161Z" fill="#6EF269"/>
<path d="M346.991 202.401C345.106 202.401 343.221 202.637 341.571 202.872C339.687 203.344 338.037 203.815 336.388 204.522C334.974 205.229 333.325 205.936 331.44 207.114C329.79 208.056 328.377 209.234 327.199 210.648C325.785 212.062 324.607 213.476 323.664 214.889C322.722 216.539 321.779 217.952 321.073 219.602C320.366 221.251 319.895 222.901 319.423 224.786C318.952 226.435 318.952 228.084 318.952 230.205C318.952 232.326 319.188 233.975 319.423 235.624C319.659 237.274 320.366 239.159 321.073 240.808C321.779 242.457 322.486 244.107 323.664 245.756C324.607 247.17 325.785 248.584 327.199 249.997C328.612 251.175 330.026 252.354 331.44 253.296C333.089 254.239 334.503 255.181 336.152 255.888C337.802 256.595 339.686 257.066 341.336 257.537C345.106 258.244 348.404 258.244 352.174 257.537C353.824 257.302 355.709 256.595 357.358 255.888C359.007 255.181 360.657 254.474 362.306 253.296C363.72 252.354 365.133 251.175 366.547 249.762C367.961 248.348 368.903 246.934 369.846 245.52C371.024 243.871 371.731 242.222 372.438 240.808C373.144 238.923 373.616 237.274 374.087 235.624C374.558 233.975 374.558 232.09 374.558 230.205C374.558 228.32 374.323 226.435 374.087 224.786C373.851 223.136 373.144 221.251 372.438 219.602C371.731 218.188 371.024 216.539 369.846 214.654C368.903 213.24 367.725 211.826 366.311 210.412C365.133 209.234 363.72 208.056 362.07 207.114C360.421 205.936 358.772 205.229 357.358 204.522C355.944 203.815 354.059 203.344 352.174 202.872C350.761 202.637 348.876 202.401 346.991 202.401Z" fill="#6EF269"/>
</svg>
