<svg width="27" height="27" viewBox="0 0 27 27" fill="none" xmlns="http://www.w3.org/2000/svg">
<path d="M22.4454 4.55465C20.1565 2.26575 16.9937 0.85 13.5 0.85C10.0063 0.85 6.84354 2.26575 4.55465 4.55465C2.26575 6.84354 0.85 10.0063 0.85 13.5C0.85 16.9937 2.26575 20.1565 4.55465 22.4454C6.84354 24.7342 10.0063 26.15 13.5 26.15C16.9937 26.15 20.1565 24.7342 22.4454 22.4454C24.7342 20.1565 26.15 16.9937 26.15 13.5C26.15 10.0063 24.7342 6.84354 22.4454 4.55465ZM21.1614 21.1622C19.1945 23.1289 16.4943 24.3321 13.5 24.3321C10.5057 24.3321 7.80549 23.1289 5.83856 21.1621C3.90019 19.1942 2.66786 16.4934 2.66786 13.5C2.66786 10.5055 3.87126 7.80516 5.83821 5.83821C7.80516 3.87126 10.5055 2.66786 13.5 2.66786C16.4945 2.66786 19.1948 3.87126 21.1618 5.83821C23.1287 7.80516 24.3321 10.5055 24.3321 13.5C24.3321 16.4934 23.0998 19.1942 21.1614 21.1622Z" fill="#6EF269" stroke="#6EF269" stroke-width="0.3"/>
<path d="M20.5623 12.5285L20.553 12.5135L20.5406 12.5011C20.4906 12.4511 20.4093 12.3433 20.3164 12.2195L20.31 12.211L20.3025 12.2035L20.243 12.1439C20.1408 12.0417 20.0383 11.9738 19.9103 11.9095L15.5548 9.40798V9.39552L15.4797 9.35222L11.047 6.79373C10.6194 6.53135 10.1318 6.50243 9.6888 6.59737L9.68873 6.59704L9.67902 6.59981C9.228 6.72868 8.84158 7.01813 8.58403 7.43364C8.52926 7.50837 8.49469 7.58851 8.46808 7.65694C8.45927 7.6796 8.45157 7.70018 8.44443 7.71925C8.42743 7.7647 8.41363 7.80159 8.39559 7.83768L8.39082 7.84721L8.38745 7.85732C8.36732 7.91771 8.35843 7.98404 8.35131 8.03746C8.35094 8.04023 8.35057 8.04298 8.35021 8.04571C8.34293 8.10044 8.33654 8.14844 8.32471 8.19576L8.32023 8.21367V8.23214V8.23231V8.23249V8.23266V8.23284V8.23302V8.2332V8.23337V8.23355V8.23373V8.23392V8.2341V8.23428V8.23446V8.23464V8.23483V8.23501V8.2352V8.23538V8.23557V8.23576V8.23595V8.23613V8.23632V8.23651V8.2367V8.23689V8.23709V8.23728V8.23747V8.23766V8.23786V8.23805V8.23825V8.23844V8.23864V8.23884V8.23903V8.23923V8.23943V8.23963V8.23983V8.24003V8.24023V8.24043V8.24063V8.24084V8.24104V8.24124V8.24145V8.24165V8.24186V8.24206V8.24227V8.24248V8.24269V8.24289V8.2431V8.24331V8.24352V8.24373V8.24394V8.24415V8.24436V8.24458V8.24479V8.245V8.24522V8.24543V8.24565V8.24586V8.24608V8.24629V8.24651V8.24673V8.24695V8.24716V8.24738V8.2476V8.24782V8.24804V8.24826V8.24848V8.2487V8.24893V8.24915V8.24937V8.2496V8.24982V8.25004V8.25027V8.25049V8.25072V8.25094V8.25117V8.2514V8.25163V8.25185V8.25208V8.25231V8.25254V8.25277V8.253V8.25323V8.25346V8.25369V8.25392V8.25415V8.25439V8.25462V8.25485V8.25508V8.25532V8.25555V8.25579V8.25602V8.25626V8.25649V8.25673V8.25697V8.2572V8.25744V8.25768V8.25791V8.25815V8.25839V8.25863V8.25887V8.25911V8.25935V8.25959V8.25983V8.26007V8.26031V8.26055V8.2608V8.26104V8.26128V8.26152V8.26177V8.26201V8.26225V8.2625V8.26274V8.26299V8.26323V8.26348V8.26372V8.26397V8.26422V8.26446V8.26471V8.26496V8.2652V8.26545V8.2657V8.26595V8.2662V8.26644V8.26669V8.26694V8.26719V8.26744V8.26769V8.26794V8.26819V8.26844V8.26869V8.26894V8.2692V8.26945V8.2697V8.26995V8.2702V8.27046V8.27071V8.27096V8.27122V8.27147V8.27172V8.27198V8.27223V8.27248V8.27274V8.27299V8.27325V8.2735V8.27376V8.27401V8.27427V8.27452V8.27478V8.27504V8.27529V8.27555V8.27581V8.27606V8.27632V8.27658V8.27683V8.27709V8.27735V8.27761V8.27786V8.27812V8.27838V8.27864V8.2789V8.27915V8.27941V8.27967V8.27993V8.28019V8.28045V8.28071V8.28097V8.28123V8.28149V8.28175V8.28201V8.28227V8.28253V8.28279V8.28305V8.28331V8.28357V8.28383V8.28409V8.28435V8.28461V8.28487V8.28513V8.28539V8.28565V8.28591V8.28617V8.28643V8.28669V8.28696V8.28722V8.28748V8.28774V8.288V8.28826V8.28852V8.28878V8.28905V8.28931V8.28957V8.28983V8.29009V8.29035V8.29062V8.29088V8.29114V8.2914V8.29166V8.29192V8.29218V8.29245V8.29271V8.29297V8.29323V8.29349V8.29375V8.29402V8.29428V8.29454V8.2948V8.29506V8.29532V8.29558V8.29585V8.29611V8.29637V8.29663V8.29689V8.29715V8.29741V8.29767V8.29793V8.29819V8.29845V8.29872V8.29898V8.29924V8.2995V8.29976V8.30002V8.30028V8.30054V8.3008V8.30106V8.30132V8.30158V8.30184V8.3021V8.30236V8.30262V8.30287V8.30313V8.30339V8.30365V8.30391V8.30417V8.30443V8.30469V8.30494V8.3052V8.30546V8.30572V8.30597V8.30623V8.30649V8.30675V8.307V8.30726V8.30752V8.30777V8.30803V8.30829V8.30854V8.3088V8.30905V8.30931V8.30957V8.30982V8.31008V8.31033V8.31058V8.31084V8.31109V8.31135V8.3116V8.31185V8.31211V8.31236V8.31261V8.31287V8.31312V8.31337V8.31362V8.31388V8.31413V8.31438V8.31463V8.31488V8.31513V8.31538V8.31563V8.31588V8.31613V8.31638V8.31663V8.31688V8.31713V8.31738V8.31762V8.31787V8.31812V8.31837V8.31861V8.31886V8.31911V8.31935V8.3196V8.31985V8.32009V8.32034V8.32058V8.32082V8.32107V8.32131V8.32156V8.3218V8.32204V8.32229V8.32253V8.32277V8.32301V8.32325V8.32349V8.32373V8.32397V8.32421V8.32445V8.32469V8.32493V8.32517V8.32541V8.32565V8.32588V8.32612V8.32636V8.32659V8.32683V8.32707V8.3273V8.32754V8.32777V8.32801V8.32824V8.32847V8.32871V8.32894V8.32917V8.3294V8.32963V8.32986V8.3301V8.33033V8.33056V8.33078V8.33101V8.33124V8.33147V8.3317V8.33193V8.33215V8.33238V8.3326V8.33283V8.33306V8.33328V8.3335V8.33373V8.33395V8.33417V8.3344V8.33462V8.33484V8.33506V8.33528V8.3355V8.33572V8.33594V8.33616V8.33638V8.3366V8.33681V8.33703V8.33725V8.33746V8.33768V8.33789V8.33811V8.33832V8.33853V8.33875V8.33896V8.33917V8.33938V8.33959V8.3398V8.34001V8.34022V8.34043V8.34064V8.34085V8.34105V8.34126V8.34146V8.34167V8.34188V8.34208V8.34228V8.34249V8.34269V8.34289V8.34309V8.34329V8.34349V8.34369V8.34389V8.34409V8.34429V8.34449V8.34468V8.34488V8.34508V8.34527V8.34547V8.34566V8.34585V8.34605V8.34624V8.34643V8.34662V8.34681V8.347V8.34719V8.34738V8.34757V8.34775V8.34794V8.34812V8.34831V8.34849V8.34868V8.34886V8.34904V8.34923V8.34941V8.34959V8.34977V8.34995V8.35013V8.35031V8.35048V8.35066V8.35084V8.35101V8.35119V13.5V18.619C8.32023 19.1054 8.51472 19.5602 8.84035 19.8858C9.16599 20.2115 9.62076 20.4059 10.1071 20.4059C10.2729 20.4059 10.4706 20.3733 10.639 20.3059L10.6479 20.3024C10.7878 20.2464 10.9489 20.182 11.0825 20.0839L15.4461 17.5607L15.5016 17.533L15.5017 17.5332L15.5092 17.5289L19.8928 15.0113C19.9085 15.0066 19.9222 15.0002 19.9341 14.993C19.9362 14.9918 19.9381 14.9905 19.9401 14.9893H19.9442L19.982 14.9641C20.3647 14.709 20.6583 14.323 20.7584 13.8947C20.8877 13.438 20.8214 12.9496 20.5623 12.5285ZM14.5857 10.9513L18.961 13.4766L14.6147 16.0193L14.5981 16.0291L14.5844 16.0427L14.5686 16.0586L10.2319 18.5662C10.2192 18.57 10.2078 18.575 10.1976 18.5805V13.5V8.41847L14.539 10.9118L14.5546 10.9275L14.5686 10.9415L14.5857 10.9513ZM10.2261 18.6053L10.2262 18.6054V18.7381C10.2262 18.661 10.2262 18.6235 10.2261 18.6053Z" fill="white" stroke="#6EF269" stroke-width="0.3"/>
</svg>
