<svg width="42" height="34" viewBox="0 0 42 34" fill="none" xmlns="http://www.w3.org/2000/svg">
<path d="M34.6836 32.8104L34.7711 32.6922L34.6836 32.8104C35.4357 33.3677 36.5086 33.2253 37.0803 32.4843C39.7424 29.0356 41.15 24.9221 41.15 20.5891C41.15 9.67679 32.1346 0.85 21 0.85C9.87158 0.85 0.85 9.67075 0.85 20.5891C0.85 24.9221 2.2576 29.0356 4.91934 32.4843L4.91938 32.4843C5.4907 33.2239 6.56292 33.3687 7.31642 32.8104L7.31644 32.8104C8.07144 32.2506 8.22163 31.1949 7.6492 30.4535C5.44157 27.5935 4.275 24.1828 4.275 20.5891C4.275 11.5412 11.7519 4.2122 21 4.2122C30.2418 4.2122 37.725 11.5356 37.725 20.5891C37.725 24.1828 36.5584 27.5935 34.3505 30.4535L34.3505 30.4535C33.7784 31.1949 33.9286 32.2506 34.6836 32.8104ZM28.5855 11.2606L28.5854 11.2607L23.57 16.1753C22.7993 15.7848 21.9254 15.5638 21 15.5638C17.9064 15.5638 15.3849 18.0306 15.3849 21.0691C15.3849 24.1078 17.9064 26.5743 21 26.5743C24.0933 26.5743 26.6151 24.1078 26.6151 21.0691C26.6151 20.1629 26.3902 19.3068 25.9928 18.552L31.0052 13.6403C31.6753 12.9837 31.6753 11.9176 31.0052 11.261C30.3365 10.6057 29.2541 10.6057 28.5855 11.2606ZM21 18.9263C22.2103 18.9263 23.1901 19.8907 23.1901 21.0694C23.1901 22.248 22.2103 23.2124 21 23.2124C19.7897 23.2124 18.8099 22.248 18.8099 21.0694C18.8099 19.8907 19.7897 18.9263 21 18.9263Z" fill="#64CF60" stroke="#64CF60" stroke-width="0.3"/>
</svg>
