<svg width="160" height="40" viewBox="0 0 160 40" fill="none" xmlns="http://www.w3.org/2000/svg">
<path d="M16.9548 39.8184H12.4272C12.1914 39.8184 11.9791 39.7277 11.8377 39.5915C11.6962 39.4327 11.6254 39.2058 11.649 38.9336L13.6298 27.8161C13.8657 26.6136 13.7478 25.7288 13.2997 25.1843C12.8988 24.7305 12.2385 24.5036 11.2953 24.5036C10.4228 24.5036 9.5031 24.6624 8.91356 24.912L6.3196 39.0924C6.22528 39.5688 5.91872 39.8184 5.42351 39.8184H0.801549C0.518572 39.8184 0.306339 39.7277 0.164851 39.5688C0.0233623 39.41 -0.0238005 39.1831 0.0233623 38.9109L3.25402 21.5541C3.34834 21.1684 3.56058 20.9188 3.93788 20.76C6.60258 19.7617 9.55026 19.2172 12.0263 19.2172C14.8561 19.2172 17.0963 20.0566 18.464 21.6222C19.8789 23.2557 20.3741 25.6153 19.8553 28.4287L17.8745 39.0697C17.7802 39.5461 17.45 39.8184 16.9548 39.8184Z" fill="white"/>
<path d="M32.731 19.5122C27.3545 19.5122 23.5107 22.3256 22.6382 26.8406L21.8128 31.5599C21.3884 33.8741 21.8836 36.0068 23.2513 37.5496C24.619 39.1378 26.7413 40 29.241 40C34.8769 40 38.4849 37.3681 39.4046 32.6035L40.3242 27.8162C40.7251 25.5928 40.2063 23.5281 38.8622 21.9853C37.4473 20.3971 35.2778 19.5122 32.731 19.5122ZM29.9248 35.3262C29.0523 35.3262 28.3449 35.0539 27.8968 34.5547C27.4016 33.9875 27.2366 33.1254 27.4252 32.0817L28.3449 27.181C28.675 25.3659 30.1371 24.2087 32.0472 24.2087C32.9197 24.2087 33.6271 24.481 34.0752 25.0255C34.594 25.6381 34.7826 26.5003 34.6175 27.4986L33.6979 32.354C33.3677 34.2371 32 35.3262 29.9248 35.3262Z" fill="white"/>
<path d="M43.4841 33.5791C43.3427 33.5791 43.2012 33.6472 43.0833 33.806L40.843 36.7555C40.7015 36.937 40.6072 37.2093 40.9374 37.4589C43.1068 39.1832 45.6301 39.9773 48.8607 39.9773C54.0015 39.9773 57.2085 37.9353 57.9396 34.2144C58.7885 29.6313 54.6146 28.0204 52.0678 27.4759C50.3463 27.0902 48.7428 26.7499 49.0258 25.3885C49.238 24.1634 50.5586 24.0045 51.7141 24.0045C53.4355 24.0045 54.9447 24.3676 56.171 25.0482C56.5011 25.207 56.7369 25.1617 56.902 24.9121L59.2365 21.8945C59.3073 21.8037 59.4016 21.6449 59.378 21.5088C59.3545 21.3953 59.2601 21.3046 59.1186 21.2138C56.9256 20.0113 54.874 19.4895 52.2564 19.4895C47.21 19.4895 44.2623 21.2819 43.4841 24.844C42.423 29.8355 47.3043 31.3556 49.4503 31.764C50.252 31.9455 51.0066 32.1044 51.5254 32.3766C52.1621 32.717 52.3979 33.1707 52.2564 33.7606C52.0914 34.464 51.4075 35.3261 49.0494 35.3261C47.1157 35.3261 45.3707 34.7589 43.8143 33.6699C43.6964 33.6245 43.5785 33.5791 43.4841 33.5791Z" fill="white"/>
<path d="M61.689 33.5791C61.5475 33.5791 61.406 33.6472 61.2881 33.806L59.0479 36.7555C58.9064 36.937 58.8121 37.2093 59.1422 37.4589C61.3117 39.1832 63.8349 39.9773 67.0656 39.9773C72.2063 39.9773 75.4134 37.9353 76.1444 34.2144C76.9934 29.6313 72.8194 28.0204 70.2727 27.4759C68.5512 27.0902 66.9477 26.7499 67.2307 25.3885C67.4429 24.1634 68.7634 24.0045 69.9189 24.0045C71.6404 24.0045 73.1496 24.3676 74.3758 25.0482C74.706 25.207 74.9418 25.1617 75.1068 24.9121L77.4414 21.8945C77.5121 21.8037 77.6065 21.6449 77.5829 21.5088C77.5593 21.3953 77.465 21.3046 77.3235 21.2138C75.1304 20.0113 73.0788 19.4895 70.4613 19.4895C65.4149 19.4895 62.4672 21.2819 61.689 24.844C60.6279 29.8355 65.5092 31.3556 67.6551 31.764C68.4569 31.9455 69.2115 32.1044 69.7303 32.3766C70.367 32.717 70.6028 33.1707 70.4613 33.7606C70.2962 34.464 69.6124 35.3261 67.2542 35.3261C65.3206 35.3261 63.5755 34.7589 62.0192 33.6699C61.9013 33.6245 61.7833 33.5791 61.689 33.5791Z" fill="white"/>
<path d="M87.2277 27.7936C82.0162 27.7936 79.0449 29.5406 78.4082 32.9893C78.0545 34.8497 78.4318 36.4833 79.493 37.7085C80.79 39.2059 82.9595 40 85.7892 40C88.5247 40 91.4252 39.5236 93.9484 38.6841C94.2078 38.5933 94.3493 38.4118 94.4436 38.0715L96.2122 28.4742C96.7546 25.5928 96.3065 23.2558 94.9388 21.6903C93.7126 20.2836 91.7553 19.5349 89.2793 19.5349C86.1901 19.5349 83.1953 20.1929 81.3088 21.3046C81.2144 21.3727 81.1201 21.4861 81.2616 21.8945L82.4878 25.0029C82.535 25.1617 82.6293 25.2524 82.7236 25.2751C82.8416 25.3205 82.983 25.2978 83.1953 25.2071C84.4215 24.6625 86.2373 24.3222 87.9587 24.3222C89.185 24.3222 90.0103 24.5718 90.4584 25.0936C90.8828 25.5928 91.0007 26.3188 90.7885 27.3852L90.6942 28.1566L90.5291 28.1339C89.5623 27.907 88.3596 27.7936 87.2277 27.7936ZM86.5674 35.5531C85.5063 35.5531 84.7517 35.3035 84.3272 34.827C83.997 34.4413 83.8791 33.8968 83.997 33.2615C84.2093 32.0136 85.3176 31.3784 87.322 31.3784C88.1238 31.3784 89.0199 31.4691 89.8924 31.6506L90.0339 31.6733L89.4443 35.2354L89.35 35.2581C88.6662 35.3942 87.5343 35.5531 86.5674 35.5531Z" fill="white"/>
<path d="M117.954 24.1861C118.992 24.1861 119.746 24.4583 120.195 24.9802C120.737 25.5928 120.855 26.5457 120.595 27.8616L118.615 38.9563C118.591 39.1152 118.638 39.274 118.732 39.3647C118.803 39.4555 118.945 39.5009 119.086 39.5009H123.637C123.968 39.5009 124.156 39.342 124.227 39.0244L126.208 28.3835C126.703 25.6381 126.255 23.3693 124.887 21.8264C123.59 20.3063 121.444 19.5122 118.709 19.5122C116.256 19.5122 113.356 20.0567 110.738 21.0323C110.455 21.1458 110.314 21.3273 110.243 21.5996L107.013 38.9563C106.989 39.1152 107.013 39.2513 107.083 39.3647C107.154 39.4555 107.295 39.5009 107.484 39.5009H112.059C112.413 39.5009 112.578 39.3647 112.648 39.0244L115.266 24.6852L115.337 24.6625C115.997 24.3676 117.035 24.1861 117.954 24.1861Z" fill="white"/>
<path d="M139.13 19.5122C133.919 19.5122 130.311 22.1895 129.462 26.6818L128.424 32.1951C128.047 34.3052 128.472 36.143 129.674 37.527C131.066 39.1152 133.353 40 136.136 40C139.248 40 141.984 39.2286 144.295 37.7085C144.554 37.5723 144.625 37.3228 144.483 36.9824L142.88 34.0783C142.809 33.9195 142.715 33.8287 142.62 33.806C142.479 33.7606 142.314 33.8514 142.196 33.9422C140.475 34.9405 138.612 35.485 136.961 35.485C135.805 35.485 134.957 35.2127 134.485 34.6455C134.013 34.101 133.895 33.3296 134.084 32.3086L134.225 31.6506H145.332C145.662 31.6506 145.828 31.5145 145.898 31.1968L146.559 27.5213C147.007 25.1163 146.629 23.2104 145.427 21.8264C144.13 20.3063 141.96 19.5122 139.13 19.5122ZM140.97 28.1566H134.886L135.122 26.9541C135.475 25.139 136.796 24.0499 138.635 24.0499C139.555 24.0499 140.262 24.3222 140.734 24.844C141.206 25.3886 141.371 26.1827 141.206 27.0902L140.97 28.1566Z" fill="white"/>
<path d="M152.053 15.2921C151.723 15.2921 151.534 15.4509 151.463 15.7686L148.492 32.059C147.997 34.7136 148.351 36.7555 149.553 38.1168C150.615 39.3193 152.312 39.9773 154.482 39.9773C155.119 39.9773 155.85 39.9092 156.463 39.7958C156.769 39.7731 156.934 39.6143 157.005 39.274L157.642 35.7345C157.665 35.5984 157.689 35.4623 157.618 35.3715C157.547 35.3035 157.406 35.2581 157.194 35.2808H156.109C155.307 35.2808 154.741 35.0766 154.364 34.6455C153.94 34.169 153.822 33.443 154.01 32.4674L155.378 25.0028H158.75C159.104 25.0028 159.269 24.8667 159.34 24.5264L159.976 21.0323C160 20.8735 159.976 20.7374 159.906 20.6239C159.811 20.5332 159.693 20.4878 159.505 20.4878H156.18L156.416 15.814C156.416 15.7005 156.416 15.5417 156.321 15.4282C156.203 15.3148 156.038 15.2921 155.92 15.2921H152.053Z" fill="white"/>
<path d="M100.103 0H52.0678C51.3839 0 50.7944 0.476461 50.6765 1.13443L50.2049 3.76631C50.1341 4.1747 50.252 4.56041 50.5114 4.87805C50.7708 5.19569 51.1717 5.3772 51.5962 5.3772H103.051C107.72 5.3772 112.106 7.12422 115.408 10.3006L116.374 11.2309C116.634 11.4804 116.987 11.6393 117.388 11.6393C117.789 11.6393 118.119 11.5031 118.402 11.2309L120.336 9.37039C120.878 8.84855 120.878 7.9637 120.336 7.44186L119.369 6.51163C114.983 2.31424 109.182 0 103.027 0H100.103Z" fill="#6EF269"/>
<path d="M103.357 15.0879C104.937 15.0879 106.47 15.6325 107.649 16.6534L108.923 17.7425C109.512 18.2416 110.408 18.1963 110.927 17.629L112.743 15.6778C113.002 15.4056 113.12 15.0652 113.097 14.6795C113.073 14.3165 112.908 13.9762 112.625 13.7493L111.611 12.8871C109.253 10.8678 106.211 9.7561 103.027 9.7561H77.1349C76.451 9.7561 75.8615 10.2326 75.7435 10.8905L75.2719 13.5224C75.2012 13.9308 75.3191 14.3165 75.5785 14.6342C75.8379 14.9518 76.2388 15.1333 76.6632 15.1333H103.051C103.145 15.0879 103.263 15.0879 103.357 15.0879Z" fill="#6EF269"/>
<path d="M103.027 19.4895C102.839 19.4895 102.65 19.5122 102.485 19.5349C102.296 19.5803 102.131 19.6256 101.966 19.6937C101.825 19.7618 101.66 19.8298 101.471 19.9433C101.306 20.034 101.164 20.1475 101.046 20.2836C100.905 20.4197 100.787 20.5559 100.693 20.692C100.598 20.8508 100.504 20.9869 100.433 21.1458C100.363 21.3046 100.315 21.4634 100.268 21.6449C100.221 21.8037 100.221 21.9626 100.221 22.1668C100.221 22.371 100.245 22.5298 100.268 22.6886C100.292 22.8474 100.363 23.0289 100.433 23.1877C100.504 23.3466 100.575 23.5054 100.693 23.6642C100.787 23.8003 100.905 23.9365 101.046 24.0726C101.188 24.186 101.329 24.2995 101.471 24.3902C101.636 24.481 101.777 24.5717 101.943 24.6398C102.108 24.7079 102.296 24.7533 102.461 24.7986C102.839 24.8667 103.169 24.8667 103.546 24.7986C103.711 24.7759 103.9 24.7079 104.065 24.6398C104.23 24.5717 104.395 24.5037 104.56 24.3902C104.702 24.2995 104.843 24.186 104.985 24.0499C105.126 23.9138 105.22 23.7776 105.315 23.6415C105.433 23.4827 105.503 23.3239 105.574 23.1877C105.645 23.0062 105.692 22.8474 105.739 22.6886C105.786 22.5298 105.786 22.3483 105.786 22.1668C105.786 21.9852 105.763 21.8037 105.739 21.6449C105.716 21.4861 105.645 21.3046 105.574 21.1458C105.503 21.0096 105.433 20.8508 105.315 20.6693C105.22 20.5332 105.102 20.397 104.961 20.2609C104.843 20.1475 104.702 20.034 104.536 19.9433C104.371 19.8298 104.206 19.7618 104.065 19.6937C103.923 19.6256 103.735 19.5803 103.546 19.5349C103.405 19.5122 103.216 19.4895 103.027 19.4895Z" fill="#6EF269"/>
</svg>
